<svg width="15" height="15" viewBox="0 0 15 15" fill="none" xmlns="http://www.w3.org/2000/svg">
<path fill-rule="evenodd" clip-rule="evenodd" d="M10.2273 5.45457C10.2273 6.17789 9.93991 6.87158 9.42845 7.38304C8.91699 7.8945 8.2233 8.18184 7.49998 8.18184C6.77666 8.18184 6.08297 7.8945 5.5715 7.38304C5.06004 6.87158 4.77271 6.17789 4.77271 5.45457C4.77271 4.73125 5.06004 4.03756 5.5715 3.52609C6.08297 3.01463 6.77666 2.72729 7.49998 2.72729C8.2233 2.72729 8.91699 3.01463 9.42845 3.52609C9.93991 4.03756 10.2273 4.73125 10.2273 5.45457ZM8.86361 5.45457C8.86361 5.81623 8.71995 6.16307 8.46421 6.4188C8.20848 6.67454 7.86164 6.8182 7.49998 6.8182C7.13832 6.8182 6.79147 6.67454 6.53574 6.4188C6.28001 6.16307 6.13634 5.81623 6.13634 5.45457C6.13634 5.09291 6.28001 4.74606 6.53574 4.49033C6.79147 4.2346 7.13832 4.09093 7.49998 4.09093C7.86164 4.09093 8.20848 4.2346 8.46421 4.49033C8.71995 4.74606 8.86361 5.09291 8.86361 5.45457Z" fill="black"/>
<path fill-rule="evenodd" clip-rule="evenodd" d="M7.5 0C3.35795 0 0 3.35795 0 7.5C0 11.642 3.35795 15 7.5 15C11.642 15 15 11.642 15 7.5C15 3.35795 11.642 0 7.5 0ZM1.36364 7.5C1.36364 8.925 1.84977 10.2368 2.66455 11.2786C3.23675 10.5272 3.97493 9.91824 4.82143 9.4993C5.66793 9.08037 6.59983 8.86282 7.54432 8.86364C8.47659 8.86275 9.39676 9.07468 10.2347 9.48326C11.0727 9.89185 11.8063 10.4863 12.3798 11.2214C12.9705 10.4465 13.3683 9.54219 13.5402 8.58313C13.712 7.62407 13.653 6.63786 13.3681 5.70613C13.0831 4.77439 12.5804 3.9239 11.9015 3.22503C11.2226 2.52615 10.387 1.999 9.4639 1.68717C8.5408 1.37533 7.55673 1.2878 6.59309 1.4318C5.62945 1.5758 4.71395 1.9472 3.92234 2.51526C3.13074 3.08333 2.48578 3.83173 2.04084 4.69854C1.5959 5.56536 1.36376 6.52566 1.36364 7.5ZM7.5 13.6364C6.09133 13.6385 4.72518 13.1539 3.63273 12.2645C4.07245 11.635 4.65773 11.1211 5.33877 10.7664C6.0198 10.4117 6.77645 10.2267 7.54432 10.2273C8.30261 10.2267 9.05011 10.407 9.72472 10.7532C10.3993 11.0995 10.9816 11.6017 11.4232 12.2182C10.3222 13.1364 8.93358 13.6384 7.5 13.6364Z" fill="black"/>
</svg>
