<svg width="16" height="10" viewBox="0 0 16 10" fill="none" xmlns="http://www.w3.org/2000/svg">
<path d="M15.2026 1.33996C15.1114 1.28868 15.0097 1.25868 14.9053 1.25219C14.8009 1.2457 14.6963 1.2629 14.5995 1.30249L12.4916 2.14214C12.5226 2.27965 12.5368 2.42043 12.5337 2.56137V8.18244C12.5368 8.32338 12.5226 8.46417 12.4916 8.60168L14.5995 9.44718C14.6823 9.48265 14.7717 9.50059 14.8618 9.49988C14.9847 9.50028 15.1056 9.46924 15.2131 9.4097C15.2972 9.36287 15.3677 9.29516 15.418 9.21311C15.4682 9.13105 15.4965 9.03744 15.5 8.94128V1.8119C15.496 1.71409 15.4665 1.61905 15.4143 1.53624C15.3621 1.45343 15.2891 1.38575 15.2026 1.33996Z" fill="white" fill-opacity="0.9"/>
<path d="M9.30633 9.49395H2.18632C1.73927 9.49333 1.31071 9.31546 0.994596 8.99935C0.678484 8.68324 0.50062 8.25468 0.5 7.80763L0.5 2.18656C0.50062 1.73951 0.678484 1.31095 0.994596 0.99484C1.31071 0.678728 1.73927 0.500864 2.18632 0.500244L9.30633 0.500244C9.75338 0.500864 10.1819 0.678728 10.4981 0.99484C10.8142 1.31095 10.992 1.73951 10.9927 2.18656V7.80763C10.992 8.25468 10.8142 8.68324 10.4981 8.99935C10.1819 9.31546 9.75338 9.49333 9.30633 9.49395Z" fill="white" fill-opacity="0.9"/>
</svg>
