<svg width="56" height="56" xmlns="http://www.w3.org/2000/svg" xmlns:xlink="http://www.w3.org/1999/xlink"><defs><circle id="a" cx="28" cy="28" r="28"/></defs><g fill="none" fill-rule="evenodd"><mask id="b" fill="#fff"><use xlink:href="#a"/></mask><circle stroke="#3D4C74" stroke-width=".5" cx="28" cy="28" r="27.75"/><g mask="url(#b)"><path d="M10.046 47.84V27.693c-.25-3.685.251-13.759 8.276-18.181 10.282-5.651 14.294 0 14.294 0s9.279-2.457 10.533 9.827c1.253 12.531.752 23.096.752 23.096L42.647 53l-23.071-2.703-9.53-2.457z" fill="#AE8162" fill-rule="nonzero"/><path d="M31.809 9c0 3.25-.756 6.25-2.267 9 .504 2.25.252 4.75 0 7.25.504-3.25-.252 1.5-.252 2.25 0 1.5-.252 2.75-.252 4.25-.252 3 0 6 0 9 .252 4.5-1.763 8.25-5.038 11L43.9 54V43.25s.504-10.75-.755-23.5c-1.26-12.5-10.58-10-10.58-10" fill="#9A7053" fill-rule="nonzero"/><g fill-rule="nonzero"><path fill="#F2D395" d="M22.305 38.25L20.574 45l7.173 3.75L33.932 45l-1.98-6.75z"/><path d="M22.305 38.25l-.494 2.25a9.225 9.225 0 0010.636 0l-.742-2.25h-9.4z" fill="#EAC587"/><path d="M33.19 42.5c1.484.5 16.82 4.25 16.82 11.25v3.75h.248H4.989v-3.75c0-7 16.327-11.25 16.327-11.25s.495 5 6.431 4.75c5.69-.5 5.442-4.75 5.442-4.75z" fill="#729DF2"/><path d="M22.058 44.5c-.742-1-.742-2-.742-2S4.989 46.75 4.989 53.75v3.75h4.206c.494-6.5 4.7-12.75 12.863-13z" fill="#5484D1" opacity=".4"/></g><path d="M17 21.656v6.197C17 34.298 21.5 40 27 40s10-5.454 10-12.147v-7.685l-5.75-10.163c0-.248-4.5 9.172-14.25 11.65z" fill="#FBE1A5" fill-rule="nonzero"/><path d="M23.565 23.884c4.354-2.479 7.016-6.942 9.435-11.9L32.032 10S27.435 19.421 18 21.9v6.2c0 6.198 4.113 11.652 9.194 11.9-2.904-1.24-6.049-3.223-7.017-8.926-.725-2.727.726-5.702 3.388-7.19z" fill="#F2D395" fill-rule="nonzero"/><path d="M30 13.443s2.857 7.377 7.857 11.065L40 25l-.952-6.885L31.905 10 30 13.443z" fill="#9A7053" fill-rule="nonzero"/><path d="M32 9.821s-1 9.571-14.75 14.48L13 27l2.25-10.798 13.5-8.098s2.5-.737 3.25 1.717z" fill="#AE8162" fill-rule="nonzero"/><path d="M31.32 30.067c-.48 0-.72-.234-.72-.7v-.7c0-.467.24-.7.72-.7s.72.233.72.7v.7c0 .466-.24.7-.72.7zM23.16 30.067c-.48 0-.72-.234-.72-.7v-.7c0-.467.24-.7.72-.7s.72.233.72.7v.7c0 .466-.48.7-.72.7z" fill="#6B5B63" fill-rule="nonzero"/><path stroke="#AE8162" stroke-width=".461" stroke-linecap="round" stroke-linejoin="round" d="M30.36 26.1H33M21.96 26.333h2.4"/><path d="M26 33.689s1.867 1.4 4 0" stroke="#EAC587" stroke-width=".529" stroke-linecap="round"/></g></g></svg>